<svg id="Layer_1" data-name="Layer 1" xmlns="http://www.w3.org/2000/svg" width="99.783" height="100.914" viewBox="0 0 99.783 100.914">
  <path id="Path_1016" data-name="Path 1016" d="M51.466,102.051C21.649,101.581-1.38,77.9.071,48.079c1-20.161,11.342-35.021,29.533-44.124.816-.408,2.765-.3,2.931.09a5.474,5.474,0,0,1,.214,3.684c-4.624,11.853-4.914,23.762-.263,35.574A46.785,46.785,0,0,0,93.032,69.753a5.107,5.107,0,0,1,1.61-.567c1.175,0,2.841-.283,3.387.346s.442,2.44,0,3.4a51.661,51.661,0,0,1-46.564,29.119Z" transform="translate(-0.006 -1.142)" fill="#424143"/>
  <path id="Path_1017" data-name="Path 1017" d="M93.405,26.05c-3.331-2.44-6.635-4.741-9.766-7.23-.857-.691-1.251-1.942-1.859-2.944,1.127-.56,2.226-1.527,3.387-1.617a74.825,74.825,0,0,1,9.317-.041c2.073.1,3.138-.546,3.684-2.62a79.333,79.333,0,0,1,3.007-9.165C101.568,1.451,102.791.8,103.628,0c.733.795,1.769,1.465,2.136,2.4,1.2,3.1,1.984,6.373,3.3,9.427a4.389,4.389,0,0,0,3.02,2.246c3.318.3,6.684,0,10.008.194a4.147,4.147,0,0,1,2.9,1.693c.283.456-.636,2.073-1.382,2.689a78.144,78.144,0,0,1-7.527,5.488c-1.942,1.244-2.647,2.454-1.617,4.769a42.686,42.686,0,0,1,2.523,7.859c.318,1.382-.09,2.917-.166,4.375a17.809,17.809,0,0,1-4.285-1.334,78.994,78.994,0,0,1-6.995-5.045c-1.341-1.037-2.343-1.348-3.877-.062a70.208,70.208,0,0,1-8.149,5.771c-.912.567-2.267.415-3.421.587-.138-1.14-.643-2.378-.359-3.407C90.8,33.791,92.127,30,93.405,26.05Z" transform="translate(-25.261 0)" fill="#444345"/>
</svg>
