<svg id="Layer_2" data-name="Layer 2" xmlns="http://www.w3.org/2000/svg" width="99.532" height="173.053" viewBox="0 0 99.532 173.053">
  <g id="MenuClimate" transform="translate(0 0)">
    <path id="Path_2926" data-name="Path 2926" d="M93.173,56.2a6.356,6.356,0,1,0,0-12.712H79.278V33.668H93.173a6.356,6.356,0,1,0,0-12.712H77.542a31.254,31.254,0,0,0-60.758,10.4V88.55a48.032,48.032,0,1,0,62.494,0V79.708H93.173a6.356,6.356,0,1,0,0-12.712H79.278V56.188Zm-9.842,68.762A35.3,35.3,0,1,1,26.957,96.689l2.56-1.9V31.358a18.52,18.52,0,1,1,37.039,0l0,63.42,2.553,1.9a34.942,34.942,0,0,1,14.225,28.282Z" transform="translate(0.003 -0.008)" fill="#403f42"/>
    <path id="Path_2927" data-name="Path 2927" d="M70.089,125V61H53.878v64.027a20.845,20.845,0,1,0,16.211,0Z" transform="translate(-13.348 -19.802)" fill="#403f42"/>
  </g>
</svg>
