<svg xmlns="http://www.w3.org/2000/svg" width="130.414" height="173.053" viewBox="0 0 130.414 173.053">
  <g id="Layer_2" data-name="Layer 2" transform="translate(0 0)">
    <g id="MenuLights" transform="translate(0 0)">
      <path id="Path_2933" data-name="Path 2933" d="M111.391,51.946C103.956,46.024,92.986,46.254,89.822,47a6.705,6.705,0,1,0,2.934,13.079c1.413-.189,7.307-.081,10.267,2.332,4.36,3.495,4.731,5.1,4.968,6.083a6.7,6.7,0,1,0,13.045-3.075C120.124,61.746,118.353,57.549,111.391,51.946Z" transform="translate(-27.346 -15.091)" fill="#403f42"/>
      <path id="Path_2934" data-name="Path 2934" d="M115.15,17.985C97.035-1.279,75.432-.008,66.186-.008H64.212c-9.233,0-30.836-1.271-48.95,17.993-.216.257-21.028,23.238-13.7,46.767C4.731,74.891,11.7,81.609,17.783,86.483s11.342,8.929,14.275,17.479a36.013,36.013,0,0,1,1.014,18.372C27.6,141.368,32.647,159.78,45.726,168.3c3.38,2.2,8.672,4.731,19.487,4.731s16.1-2.521,19.487-4.731c13.079-8.523,18.121-26.929,12.653-45.963a36.013,36.013,0,0,1,1-18.378c2.934-8.523,8.185-12.714,14.275-17.446s13.066-11.491,16.222-21.677C136.177,41.223,115.366,18.242,115.15,17.985ZM77.393,157.015c-1.291.838-3.961,2.569-12.167,2.569s-10.889-1.73-12.167-2.569c-7.077-4.61-10.139-15.154-8.111-26.665H85.5C87.552,141.861,84.49,152.405,77.393,157.015Zm38.656-96.19c-1.926,6.2-6.245,10.815-11.727,15.1C97.887,80.994,89.877,87.3,85.659,99.582a46.889,46.889,0,0,0-2.433,17.391H47.152a46.753,46.753,0,0,0-2.44-17.391C40.5,87.294,32.545,80.987,26.056,75.925c-5.482-4.339-9.835-8.956-11.727-15.154C9.462,45.123,24.853,27.312,25.009,27.157,39.2,12.192,55.425,13.409,64.212,13.409H66.24c8.746,0,25.009-1.217,39.136,13.721.155.182,15.546,17.946,10.68,33.641Z" transform="translate(0.001 0.026)" fill="#403f42"/>
    </g>
  </g>
</svg>
