<svg xmlns="http://www.w3.org/2000/svg" width="174" height="126.34" viewBox="0 0 174 126.34">
  <g id="Group_1243" data-name="Group 1243" transform="translate(-516 -286.83)">
    <g id="Layer_1" data-name="Layer 1" transform="translate(516 286.83)">
      <path id="Path_585" data-name="Path 585" d="M62.526,116.069V101.958H7.542c-6.261,0-7.459-1.089-7.467-7.46Q-.057,50.529,0,6.595C0,1.122,1.244,0,6.646,0H165.495c6.865,0,8.487,1.54,8.487,8.553V93.12c0,7.061-1.886,8.858-8.817,8.858H111.133v14.109h28.185a31.594,31.594,0,0,1,4.243,0c3.045.436,6.092,1.187,5.847,5.227-.245,3.679-2.679,4.885-6.109,4.894-20.745,0-41.489.124-62.234.133-16.813,0-33.625-.133-50.437-.133-3.526,0-6.413-.9-6.525-4.914-.113-4.295,2.828-5.3,6.6-5.264C41.111,116.136,51.615,116.069,62.526,116.069ZM162.582,91.95l.866-.76V10.35H10.154V92.074H49.523Zm-61.506,10.3H72.293V115.84h28.789Z" transform="translate(0.018 0)" fill="#403f42"/>
    </g>
    <g id="Group_1157" data-name="Group 1157" transform="translate(549.787 368.709) rotate(-90)">
      <g id="Group_1144" data-name="Group 1144">
        <path id="Path_3519" data-name="Path 3519" d="M20.208,0A24.709,24.709,0,0,0,.911,9.284a4.083,4.083,0,0,0,.275,5.448l.213.213a4.1,4.1,0,0,0,6.109-.432,16.312,16.312,0,0,1,25.4,0,4.1,4.1,0,0,0,6.109.432l.213-.213a4.083,4.083,0,0,0,.275-5.448A24.709,24.709,0,0,0,20.208,0Z" transform="translate(9.906 13.924)" fill="#424242"/>
        <path id="Path_3521" data-name="Path 3521" d="M30.114,0A38.616,38.616,0,0,0,.961,13.284,4.032,4.032,0,0,0,1.2,18.766l.242.242a4.032,4.032,0,0,0,5.886-.179,30.173,30.173,0,0,1,45.566,0,4.032,4.032,0,0,0,5.886.179l.242-.242a4.032,4.032,0,0,0,.241-5.482A38.612,38.612,0,0,0,30.114,0Z" fill="#424242"/>
      </g>
    </g>
    <g id="Group_1158" data-name="Group 1158" transform="translate(656.215 308.482) rotate(90)">
      <g id="Group_1144-2" data-name="Group 1144">
        <path id="Path_3519-2" data-name="Path 3519" d="M20.208,0A24.709,24.709,0,0,0,.911,9.284a4.083,4.083,0,0,0,.275,5.448l.213.213a4.1,4.1,0,0,0,6.109-.432,16.312,16.312,0,0,1,25.4,0,4.1,4.1,0,0,0,6.109.432l.213-.213a4.083,4.083,0,0,0,.275-5.448A24.709,24.709,0,0,0,20.208,0Z" transform="translate(9.906 13.924)" fill="#424242"/>
        <path id="Path_3521-2" data-name="Path 3521" d="M30.114,0A38.616,38.616,0,0,0,.961,13.284,4.032,4.032,0,0,0,1.2,18.766l.242.242a4.032,4.032,0,0,0,5.886-.179,30.173,30.173,0,0,1,45.566,0,4.032,4.032,0,0,0,5.886.179l.242-.242a4.032,4.032,0,0,0,.241-5.482A38.612,38.612,0,0,0,30.114,0Z" fill="#424242"/>
      </g>
    </g>
    <g id="Ellipse_88" data-name="Ellipse 88" transform="translate(585.152 320.746)" fill="none" stroke="#403f42" stroke-width="7">
      <ellipse cx="17.85" cy="17.85" rx="17.85" ry="17.85" stroke="none"/>
      <ellipse cx="17.85" cy="17.85" rx="14.35" ry="14.35" fill="none"/>
    </g>
  </g>
</svg>
