<svg xmlns="http://www.w3.org/2000/svg" width="85.334" height="60.95" viewBox="0 0 85.334 60.95">
  <path id="Path_3556" data-name="Path 3556" d="M20.466,50.821a8.129,8.129,0,0,0-8.125,8.125V77.231a6.093,6.093,0,0,0-6.1,6.1v24.38a4.071,4.071,0,0,0,4.065,4.065h8.125a4.071,4.071,0,0,0,4.065-4.065v-4.065H75.325v4.065a4.071,4.071,0,0,0,4.065,4.065h8.125a4.071,4.071,0,0,0,4.065-4.065V83.326a6.093,6.093,0,0,0-6.1-6.1V58.946a8.129,8.129,0,0,0-8.125-8.125Zm0,4.065H77.352a4.071,4.071,0,0,1,4.065,4.065V77.235h-6.1v-6.1a6.093,6.093,0,0,0-6.1-6.1H57.036a6.093,6.093,0,0,0-6.1,6.1v6.1H46.877v-6.1a6.093,6.093,0,0,0-6.1-6.1H28.592a6.093,6.093,0,0,0-6.1,6.1v6.1H16.4V58.95a4.071,4.071,0,0,1,4.065-4.065Zm8.125,14.22h12.19a2.032,2.032,0,0,1,2.03,2.03v6.1H26.558v-6.1a2.032,2.032,0,0,1,2.03-2.03Zm28.445,0h12.19a2.032,2.032,0,0,1,2.03,2.03v6.1H55v-6.1a2.032,2.032,0,0,1,2.03-2.03ZM12.341,81.3h73.14a2.032,2.032,0,0,1,2.03,2.03v24.38H79.386v-4.065a4.064,4.064,0,0,0-4.065-4.065H22.5a4.064,4.064,0,0,0-4.065,4.065v4.065H10.307V83.326a2.032,2.032,0,0,1,2.03-2.03Z" transform="translate(-6.246 -50.821)" fill="#ae1d32" fill-rule="evenodd"/>
</svg>
