<svg xmlns="http://www.w3.org/2000/svg" width="115.789" height="115.788" viewBox="0 0 115.789 115.788">
  <g id="Group_1250" data-name="Group 1250" transform="translate(-357.211 -210)">
    <g id="Layer_2" data-name="Layer 2" transform="translate(473 210) rotate(90)">
      <g id="Layer_81" data-name="Layer 81" transform="translate(0)">
        <ellipse id="Ellipse_77" data-name="Ellipse 77" cx="56.649" cy="56.649" rx="56.649" ry="56.649" transform="translate(1.245 1.245)" fill="#fff"/>
        <path id="Path_2170" data-name="Path 2170" d="M57.894,115.789a57.894,57.894,0,1,1,57.894-57.894A57.96,57.96,0,0,1,57.894,115.789Zm0-113.3a55.4,55.4,0,1,0,55.4,55.4A55.468,55.468,0,0,0,57.894,2.49Z" fill="#dcdddd"/>
      </g>
    </g>
    <g id="Layer_1" data-name="Layer 1" transform="translate(374.117 226.443)">
      <path id="Path_1016" data-name="Path 1016" d="M42.281,84.5C17.786,84.11-1.133,64.651.059,40.157.883,23.594,9.377,11.387,24.321,3.909c.67-.335,2.271-.244,2.407.074A4.5,4.5,0,0,1,26.9,7.009c-3.8,9.738-4.037,19.521-.216,29.224a38.434,38.434,0,0,0,49.739,21.73,4.2,4.2,0,0,1,1.323-.466c.965,0,2.334-.233,2.782.284a3.34,3.34,0,0,1,0,2.794A42.44,42.44,0,0,1,42.281,84.5Z" transform="translate(-0.006 -1.598)" fill="#ae1d32"/>
      <path id="Path_1017" data-name="Path 1017" d="M91.33,21.4c-2.737-2-5.451-3.9-8.023-5.939a8.872,8.872,0,0,1-1.527-2.419c.926-.46,1.828-1.255,2.782-1.329a61.47,61.47,0,0,1,7.654-.034c1.7.085,2.578-.449,3.026-2.152A65.172,65.172,0,0,1,97.712,2c.324-.806,1.329-1.34,2.016-2,.6.653,1.454,1.2,1.754,1.97.982,2.549,1.63,5.235,2.708,7.745a3.606,3.606,0,0,0,2.481,1.845c2.725.244,5.491,0,8.222.159a3.407,3.407,0,0,1,2.385,1.391c.233.375-.522,1.7-1.136,2.209a64.2,64.2,0,0,1-6.183,4.508c-1.6,1.022-2.175,2.016-1.329,3.918A35.068,35.068,0,0,1,110.7,30.2a13.487,13.487,0,0,1-.136,3.594,14.631,14.631,0,0,1-3.52-1.1,64.9,64.9,0,0,1-5.746-4.145c-1.1-.852-1.925-1.107-3.185-.051a57.677,57.677,0,0,1-6.694,4.741c-.75.466-1.862.341-2.811.483a7.94,7.94,0,0,1-.3-2.8C89.19,27.759,90.28,24.648,91.33,21.4Z" transform="translate(-35.349 0)" fill="#ae1d32"/>
    </g>
  </g>
</svg>
