<svg id="Light_Icon" data-name="Light Icon" xmlns="http://www.w3.org/2000/svg" width="56.9" height="74.609" viewBox="0 0 56.9 74.609">
  <g id="图层_1" data-name="图层 1" transform="translate(0 0)">
    <path id="Path_1790" data-name="Path 1790" d="M58.073,27.861A11.088,11.088,0,0,0,49.96,26a2.521,2.521,0,0,0,1.1,4.92,6.338,6.338,0,0,1,3.862.875c1.64,1.315,1.787,1.92,1.869,2.291A2.521,2.521,0,0,0,61.7,32.928C61.358,31.535,60.694,29.968,58.073,27.861Z" transform="translate(-21.115 -11.95)" fill="#403f42"/>
    <path id="Path_1791" data-name="Path 1791" d="M50.233,7.744C42.331-.564,32.905-.007,28.872-.007h-.855c-4.033,0-13.459-.557-21.361,7.751-.1.095-9.177,10.014-5.978,20.165,1.382,4.385,4.41,7.268,7.083,9.368s4.947,3.849,6.228,7.536a15.333,15.333,0,0,1,.436,7.924c-2.386,8.208-.186,16.148,5.521,19.819,1.477.951,3.783,2.038,8.5,2.038s7.025-1.087,8.5-2.038c5.707-3.676,7.907-11.611,5.521-19.819a15.333,15.333,0,0,1,.436-7.924c1.281-3.676,3.571-5.472,6.228-7.536a19.326,19.326,0,0,0,7.083-9.347C59.409,17.758,50.328,7.839,50.233,7.744ZM33.761,67.688c-.563.362-1.727,1.108-5.314,1.108s-4.75-.746-5.314-1.108c-3.087-1.985-4.432-6.533-3.539-11.5H37.3C38.192,61.156,36.848,65.7,33.761,67.688ZM50.626,26.2c-.84,2.673-2.726,4.653-5.117,6.512-2.806,2.185-6.3,4.9-8.14,10.2a19.989,19.989,0,0,0-1.063,7.5H20.567a19.988,19.988,0,0,0-1.063-7.5c-1.839-5.3-5.314-8.019-8.14-10.2-2.391-1.859-4.277-3.849-5.117-6.522C4.121,19.444,10.838,11.767,10.9,11.7,17.076,5.244,24.175,5.769,28,5.769h.9c3.815,0,10.919-.525,17.073,5.918.069.079,6.791,7.735,4.66,14.5Z" transform="translate(0.004 0.015)" fill="#403f42"/>
  </g>
</svg>
