<svg id="Layer_2" data-name="Layer 2" xmlns="http://www.w3.org/2000/svg" width="119.26" height="118.201" viewBox="0 0 119.26 118.201">
  <g id="Layer_193" data-name="Layer 193" transform="translate(0 0)">
    <rect id="Rectangle_384" data-name="Rectangle 384" width="118.201" height="118.201" transform="translate(1.059 0)" fill="#fff" opacity="0"/>
    <path id="Path_2870" data-name="Path 2870" d="M66.24,105.154c-21.883,0-39.69-18.129-39.69-40.388s17.807-40.4,39.69-40.4,39.713,18.137,39.713,40.4S88.122,105.154,66.24,105.154Zm0-73.108c-17.653,0-32.014,14.683-32.014,32.72S48.586,97.478,66.24,97.478,98.277,82.8,98.277,64.766,83.893,32.045,66.24,32.045Z" transform="translate(-6.172 -5.665)" fill="#424242"/>
    <ellipse id="Ellipse_121" data-name="Ellipse 121" cx="6.309" cy="6.44" rx="6.309" ry="6.44" transform="translate(106.642 49.353)" fill="#424242"/>
    <ellipse id="Ellipse_122" data-name="Ellipse 122" cx="6.309" cy="6.44" rx="6.309" ry="6.44" transform="translate(88.137 21.612) rotate(-45)" fill="#424242"/>
    <ellipse id="Ellipse_123" data-name="Ellipse 123" cx="6.44" cy="6.309" rx="6.44" ry="6.309" transform="translate(53.244)" fill="#424242"/>
    <ellipse id="Ellipse_124" data-name="Ellipse 124" cx="6.44" cy="6.309" rx="6.44" ry="6.309" transform="translate(88.138 96.717) rotate(-45)" fill="#424242"/>
    <ellipse id="Ellipse_125" data-name="Ellipse 125" cx="6.44" cy="6.309" rx="6.44" ry="6.309" transform="translate(53.244 105.583)" fill="#424242"/>
    <ellipse id="Ellipse_126" data-name="Ellipse 126" cx="6.309" cy="6.44" rx="6.309" ry="6.44" transform="translate(0 49.353)" fill="#424242"/>
    <ellipse id="Ellipse_127" data-name="Ellipse 127" cx="6.44" cy="6.309" rx="6.44" ry="6.309" transform="translate(13.105 21.802) rotate(-45)" fill="#424242"/>
    <ellipse id="Ellipse_128" data-name="Ellipse 128" cx="6.309" cy="6.44" rx="6.309" ry="6.44" transform="translate(13.106 96.538) rotate(-45)" fill="#424242"/>
  </g>
</svg>
