<svg xmlns="http://www.w3.org/2000/svg" width="115.789" height="115.788" viewBox="0 0 115.789 115.788">
  <g id="Group_1253" data-name="Group 1253" transform="translate(-356.106 -413.211)">
    <g id="Layer_2" data-name="Layer 2" transform="translate(471.895 413.211) rotate(90)">
      <g id="Layer_81" data-name="Layer 81" transform="translate(0)">
        <ellipse id="Ellipse_77" data-name="Ellipse 77" cx="56.649" cy="56.649" rx="56.649" ry="56.649" transform="translate(1.245 1.245)" fill="#fff"/>
        <path id="Path_2170" data-name="Path 2170" d="M57.894,115.789a57.894,57.894,0,1,1,57.894-57.894A57.96,57.96,0,0,1,57.894,115.789Zm0-113.3a55.4,55.4,0,1,0,55.4,55.4A55.468,55.468,0,0,0,57.894,2.49Z" fill="#dcdddd"/>
      </g>
    </g>
    <g id="Layer_2-2" data-name="Layer 2" transform="translate(373.195 431.207)">
      <g id="Layer_1" data-name="Layer 1" transform="translate(0 0)">
        <path id="Path_1018" data-name="Path 1018" d="M126.471,44.5V59.083c-5.037,1.852-7.25,5.556-7.185,11.954.06,6.125,2.264,9.634,7.185,11.352a7.875,7.875,0,0,1,.1.861v13.2l-34.894,7.62V54.028c0-1.167-.171-2.181,1.523-2.537,10.616-2.227,21.2-4.574,31.806-6.875a11.892,11.892,0,0,1,1.468-.116Z" transform="translate(-49.23 -24.307)" fill="#424143"/>
        <path id="Path_1019" data-name="Path 1019" d="M9.239,59.037V44.13L43.9,51.676V103.9c-3.972-.875-7.769-1.718-11.574-2.542-7.144-1.56-14.282-3.144-21.444-4.63-1.3-.269-1.8-.7-1.764-2.083.088-4.083.032-8.171.032-12.245,5.528-1.736,7.231-5.417,7.162-12.222S13.956,60.348,9.239,59.037Z" transform="translate(-4.896 -24.109)" fill="#424143"/>
        <path id="Path_1020" data-name="Path 1020" d="M42.334,20.51A18.921,18.921,0,0,1,48.881,5.459C59.839-4.6,80.08-.425,84.149,15.278c.079.3.162.6.218.9.764,4.088.648,4.278-3.389,5.181-4.435.991-8.907,1.852-13.306,2.968a16.769,16.769,0,0,1-8.375,0C53.7,22.927,48.057,21.76,42.334,20.51Z" transform="translate(-22.732 -0.001)" fill="#424143"/>
        <path id="Path_1021" data-name="Path 1021" d="M0,91.82c.681-2.384,1.014-4.63,1.954-6.565,1.19-2.472,3.241-2.444,4.819-.241C9,88.089,8.88,95.663,6.569,98.626c-1.477,1.884-3.324,1.963-4.4-.176A43.364,43.364,0,0,1,0,91.82Z" transform="translate(0 -45.027)" fill="#454546"/>
        <path id="Path_1022" data-name="Path 1022" d="M166.5,91.651a45.357,45.357,0,0,1-2.06,6.542c-1.185,2.412-3.324,2.315-4.81.06-2.148-3.278-2.06-10.282.171-13.454,1.343-1.912,3.38-2.065,4.417,0A48.538,48.538,0,0,1,166.5,91.651Z" transform="translate(-84.892 -44.988)" fill="#454446"/>
      </g>
    </g>
  </g>
</svg>
