<svg id="Layer_2" data-name="Layer 2" xmlns="http://www.w3.org/2000/svg" width="113.898" height="111.362" viewBox="0 0 113.898 111.362">
  <g id="Layer_1" data-name="Layer 1" transform="translate(0 0)">
    <path id="Path_1018" data-name="Path 1018" d="M140.239,44.5V64.853c-7.03,2.584-10.118,7.753-10.028,16.683.084,8.548,3.16,13.446,10.028,15.843a11,11,0,0,1,.136,1.2V117l-48.7,10.635V57.8c0-1.628-.239-3.043,2.126-3.541,14.815-3.108,29.592-6.384,44.388-9.595a16.6,16.6,0,0,1,2.048-.162Z" transform="translate(-32.44 -16.319)" fill="#424143"/>
    <path id="Path_1019" data-name="Path 1019" d="M9.287,64.935V44.13L57.662,54.662V127.55c-5.544-1.221-10.842-2.4-16.153-3.547-9.97-2.177-19.933-4.387-29.928-6.461-1.809-.375-2.507-.982-2.462-2.908.123-5.7.045-11.4.045-17.09,7.715-2.423,10.092-7.56,10-17.058S15.871,66.764,9.287,64.935Z" transform="translate(-3.226 -16.188)" fill="#424143"/>
    <path id="Path_1020" data-name="Path 1020" d="M42.336,28.623A26.407,26.407,0,0,1,51.472,7.618c15.294-14.04,43.542-8.212,49.221,13.7.11.414.226.833.3,1.253,1.066,5.705.9,5.97-4.73,7.23-6.19,1.383-12.431,2.584-18.569,4.142a23.4,23.4,0,0,1-11.688,0C58.2,32,50.322,30.368,42.336,28.623Z" transform="translate(-14.98 -0.001)" fill="#424143"/>
    <path id="Path_1021" data-name="Path 1021" d="M0,95.159C.95,91.831,1.415,88.7,2.727,86c1.661-3.45,4.523-3.411,6.726-.336,3.1,4.29,2.94,14.861-.284,19-2.061,2.63-4.639,2.74-6.145-.246C1.577,101.543.969,98.247,0,95.159Z" transform="translate(0 -29.854)" fill="#454546"/>
    <path id="Path_1022" data-name="Path 1022" d="M169.837,94.952c-1.008,3.315-1.551,6.416-2.875,9.13-1.654,3.366-4.639,3.231-6.713.084-3-4.575-2.875-14.35.239-18.776,1.874-2.668,4.717-2.882,6.164,0S168.81,91.747,169.837,94.952Z" transform="translate(-55.94 -29.828)" fill="#454446"/>
  </g>
</svg>
