<svg xmlns="http://www.w3.org/2000/svg" width="115.789" height="115.788" viewBox="0 0 115.789 115.788">
  <g id="Group_1233" data-name="Group 1233" transform="translate(-119.27 -666.16)">
    <g id="Layer_2" data-name="Layer 2" transform="translate(235.059 666.16) rotate(90)">
      <g id="Layer_81" data-name="Layer 81" transform="translate(0)">
        <ellipse id="Ellipse_77" data-name="Ellipse 77" cx="56.649" cy="56.649" rx="56.649" ry="56.649" transform="translate(1.245 1.245)" fill="#fff"/>
        <path id="Path_2170" data-name="Path 2170" d="M57.894,115.789a57.894,57.894,0,1,1,57.894-57.894A57.96,57.96,0,0,1,57.894,115.789Zm0-113.3a55.4,55.4,0,1,0,55.4,55.4A55.468,55.468,0,0,0,57.894,2.49Z" fill="#dcdddd"/>
      </g>
    </g>
    <g id="Layer_73" data-name="Layer 73" transform="translate(140.516 680.988)">
      <g id="Layer_2-2" data-name="Layer 2">
        <g id="Layer_1-2" data-name="Layer 1-2">
          <path id="Path_2174" data-name="Path 2174" d="M72.415,36.678a34.457,34.457,0,0,1-6,28.374A38.278,38.278,0,0,1,42.7,79.513C28.036,82.058,12.691,74.878,4.963,61.8A34.464,34.464,0,0,1,8.534,21.28a60.134,60.134,0,0,1,9.253-8.031c1.32-.879,3.519-1.773,4.7,0,1.268,1.925-.88,3.424-2.009,4.275C11.869,23.161,5.7,31.747,5.425,42.719c-.308,12.68,5.132,22.65,16.716,28.547C33.872,77.25,45.6,76.161,56.006,68.231,73.229,55.154,71.894,29.764,53.66,18.079c-.616-.389-2.8-1.3-3.035-1.853a3.552,3.552,0,0,1,.323-3.114c.924-1.247,1.914-1.442,2.933-.894,7.332,4.059,14,10.633,16.863,18.426a48.432,48.432,0,0,1,1.672,6.034Z" transform="translate(0.002 -1.887)" fill="#ae1d32"/>
          <path id="Path_2175" data-name="Path 2175" d="M52.259,28.611a2.409,2.409,0,0,1-.353,1.052,3.189,3.189,0,0,1-5.091.454,1.81,1.81,0,0,1-.529-1.069c-.16-9-.176-17.848,0-26.928a1.684,1.684,0,0,1,.58-1.069,3.173,3.173,0,0,1,5.267.842,1.862,1.862,0,0,1,.109.631C52.335,7.321,52.326,24.235,52.259,28.611Z" transform="translate(-12.705 0.004)" fill="#ae1d32"/>
        </g>
      </g>
    </g>
  </g>
</svg>
