<svg xmlns="http://www.w3.org/2000/svg" width="115.789" height="115.788" viewBox="0 0 115.789 115.788">
  <g id="Group_1234" data-name="Group 1234" transform="translate(-119 -852.16)">
    <g id="Layer_2" data-name="Layer 2" transform="translate(234.789 852.16) rotate(90)">
      <g id="Layer_81" data-name="Layer 81" transform="translate(0)">
        <ellipse id="Ellipse_77" data-name="Ellipse 77" cx="56.649" cy="56.649" rx="56.649" ry="56.649" transform="translate(1.245 1.245)" fill="#fff"/>
        <path id="Path_2170" data-name="Path 2170" d="M57.894,115.789a57.894,57.894,0,1,1,57.894-57.894A57.96,57.96,0,0,1,57.894,115.789Zm0-113.3a55.4,55.4,0,1,0,55.4,55.4A55.468,55.468,0,0,0,57.894,2.49Z" fill="#dcdddd"/>
      </g>
    </g>
    <g id="Layer_2-2" data-name="Layer 2" transform="translate(138.246 881.596)">
      <g id="Layer_1" data-name="Layer 1" transform="translate(0 0)">
        <path id="Path_2325" data-name="Path 2325" d="M45.359,28.632c0,8.033.086,16.067-.079,24.094-.031,1.411-.745,3.366-1.8,4.02-.837.519-2.9-.226-4.02-.99-4.851-3.3-9.53-6.885-14.356-10.22a7.63,7.63,0,0,0-3.867-1.258c-4.368-.153-8.742-.037-13.116-.061C3.665,44.186.574,41.852.293,37.4A146.855,146.855,0,0,1,.238,19.744c.257-4.515,3.336-6.983,7.984-7.141a75.033,75.033,0,0,1,9.451.037,12.873,12.873,0,0,0,9.512-3.055c3.971-3.012,8.088-5.8,12.279-8.485,1.142-.733,3.2-1.448,4.026-.916,1.051.684,1.759,2.627,1.79,4.044C45.439,12.358,45.359,20.5,45.359,28.632Z" transform="translate(0.001 0.002)" fill="#424143"/>
        <path id="Path_2326" data-name="Path 2326" d="M98.927,43.819c-2.346,2.7-3.879,4.466-5.406,6.237-1.289,1.5-2.407,1.35-3.781-.055-4.826-4.942-4.148-3.757-.2-7.826.99-1.014,2.156-1.833,3.891-3.348C91.2,36.9,89.373,35.3,87.522,33.739c-1.387-1.161-1.387-2.163-.1-3.537,4.142-4.46,4.105-4.521,8.327-.257.923.941,1.692,2.034,3.012,3.665,2.01-2.273,3.665-4.069,5.223-5.914,1.1-1.283,2-1.222,3.281-.061,4.478,4.1,4.521,4.05.232,8.473-.843.874-1.674,1.759-2.859,3.006,1.8,1.723,3.494,3.421,5.272,5.034,1.368,1.252,1.258,2.266-.049,3.543-5.07,4.942-3.788,4.557-8.247.116A30.582,30.582,0,0,1,98.927,43.819Z" transform="translate(-33.597 -10.407)" fill="#454446"/>
      </g>
    </g>
  </g>
</svg>
