<svg xmlns="http://www.w3.org/2000/svg" width="66.001" height="61.604" viewBox="0 0 66.001 61.604">
  <g id="Group_1238" data-name="Group 1238" transform="translate(-102.98 -1620.83)">
    <path id="Path" d="M32.961,32.021l16.028-16.68L62.209,1.569a12.131,12.131,0,0,1,.974-.937c.832-.676,1.911-.977,2.516-.044a2.861,2.861,0,0,1,.017,2.523A18.744,18.744,0,0,1,63.011,6.1Q49.029,20.668,35.045,35.224c-1.556,1.623-2.472,1.613-4.058-.034Q16.234,19.836,1.495,4.478C.991,3.95.291,3.45.115,2.814A2.648,2.648,0,0,1,.385.589,2.738,2.738,0,0,1,2.624.507C3.2.69,3.639,1.366,4.1,1.86Q17.857,16.166,31.6,30.486C32.028,30.925,32.417,31.4,32.961,32.021Z" transform="translate(102.98 1646)" fill="#403f42"/>
    <path id="Path-2" data-name="Path" d="M32.961,32.021l16.028-16.68L62.209,1.569a12.131,12.131,0,0,1,.974-.937c.832-.676,1.911-.977,2.516-.044a2.861,2.861,0,0,1,.017,2.523A18.744,18.744,0,0,1,63.011,6.1Q49.029,20.668,35.045,35.224c-1.556,1.623-2.472,1.613-4.058-.034Q16.234,19.836,1.495,4.478C.991,3.95.291,3.45.115,2.814A2.648,2.648,0,0,1,.385.589,2.738,2.738,0,0,1,2.624.507C3.2.69,3.639,1.366,4.1,1.86Q17.857,16.166,31.6,30.486C32.028,30.925,32.417,31.4,32.961,32.021Z" transform="translate(102.98 1620.83)" fill="#403f42"/>
  </g>
</svg>
