<svg xmlns="http://www.w3.org/2000/svg" width="85" height="84.126" viewBox="0 0 85 84.126">
  <g id="Group_1200" data-name="Group 1200" transform="translate(-314 -902.367)">
    <g id="Path_3558" data-name="Path 3558" transform="translate(314 902.367)" fill="none" stroke-linecap="round" stroke-linejoin="round">
      <path d="M12.319,0H72.681A12.319,12.319,0,0,1,85,12.319v39.42A12.319,12.319,0,0,1,72.681,64.057H45.555l-7.311,7.676L27.665,82.622a7.1,7.1,0,0,1-3.889,1.5,9.371,9.371,0,0,1-4.3-1.5,6.554,6.554,0,0,1-1.867-4.1,24.933,24.933,0,0,1,.726-6.793l1.141-7.676H12.319A12.319,12.319,0,0,1,0,51.738V12.319A12.319,12.319,0,0,1,12.319,0Z" stroke="none"/>
      <path d="M 12.31884002685547 7 C 9.386016845703125 7 7 9.38592529296875 7 12.31863403320312 L 7 51.7382926940918 C 7 54.67099761962891 9.386016845703125 57.05692672729492 12.31884002685547 57.05692672729492 L 19.47194671630859 57.05692672729492 C 21.50812911987305 57.05692672729492 23.44340133666992 57.94352722167969 24.77312850952148 59.48554611206055 C 26.10285568237305 61.02758026123047 26.69525527954102 63.07218170166016 26.39585494995117 65.08621978759766 L 25.12743759155273 73.40802001953125 C 24.97177505493164 74.04481506347656 24.82130432128906 74.84300994873047 24.71505355834961 75.61290740966797 L 33.17514419555664 66.90463256835938 L 40.48645401000977 59.22894287109375 C 41.80763626098633 57.84192657470703 43.63950729370117 57.05692672729492 45.5550537109375 57.05692672729492 L 72.68116760253906 57.05692672729492 C 75.61398315429688 57.05692672729492 78 54.67099761962891 78 51.7382926940918 L 78 12.31863403320312 C 78 9.38592529296875 75.61398315429688 7 72.68116760253906 7 L 12.31884002685547 7 M 12.31884002685547 0 L 72.68116760253906 0 C 79.48467254638672 0 85 5.515235900878906 85 12.31863403320312 L 85 51.7382926940918 C 85 58.54169082641602 79.48467254638672 64.05693054199219 72.68116760253906 64.05693054199219 L 45.5550537109375 64.05693054199219 L 38.24374389648438 71.73262023925781 L 27.66505432128906 82.62210845947266 C 27.66505432128906 82.62210845947266 25.82400131225586 84.1258544921875 23.77572631835938 84.1258544921875 C 21.72745513916016 84.1258544921875 19.47194671630859 82.62210845947266 19.47194671630859 82.62210845947266 C 19.47194671630859 82.62210845947266 17.89012908935547 81.24768829345703 17.60487365722656 78.52532958984375 C 17.31961822509766 75.80294799804688 18.33089447021484 71.73262023925781 18.33089447021484 71.73262023925781 L 19.47194671630859 64.05693054199219 L 12.31884002685547 64.05693054199219 C 5.515327453613281 64.05693054199219 0 58.54169082641602 0 51.7382926940918 L 0 12.31863403320312 C 0 5.515235900878906 5.515327453613281 0 12.31884002685547 0 Z" stroke="none" fill="#ae1d32"/>
    </g>
    <text id="_" data-name="?" transform="translate(356.5 950.01)" fill="#ae1d32" font-size="47" font-family="SofiaPro-SemiBold, Sofia Pro" font-weight="600" letter-spacing="0.012em"><tspan x="-11.491" y="0">?</tspan></text>
  </g>
</svg>
