<svg id="Layer_2" data-name="Layer 2" xmlns="http://www.w3.org/2000/svg" width="174" height="125.062" viewBox="0 0 174 125.062">
  <g id="MediaCable">
    <path id="Path_2856" data-name="Path 2856" d="M148.041,37.35c-1.516-4.6-4.289-7.273-9.047-8.788-12.4-3.963-41.733-5.3-62.681.1a13.132,13.132,0,0,0-8.972,7.687c-5.852,14.688-3.521,31.945.591,44.22a11.154,11.154,0,0,0,8.041,7.239c21.784,5.261,42.141,3.915,62.585.218a11.555,11.555,0,0,0,8.883-7.477,67.2,67.2,0,0,0,.6-43.2Zm-48.2,12.826H94.57V68.527A4.078,4.078,0,0,1,90.451,72.5H89.69a4.078,4.078,0,0,1-4.119-3.969V50.176H80.358a4.214,4.214,0,0,1-4.3-4.139h0a4.221,4.221,0,0,1,4.3-4.139H99.844a4.221,4.221,0,0,1,4.3,4.139h0a4.214,4.214,0,0,1-4.3,4.139Zm26.3,22.321h0a7.327,7.327,0,0,1-6.8-4.486L111.093,47.8a4.35,4.35,0,0,1,4.18-5.906h.788a4.479,4.479,0,0,1,4.2,2.841l5.791,14.919,5.3-14.817a4.486,4.486,0,0,1,4.241-2.916h.394a4.35,4.35,0,0,1,4.248,5.723l-7.143,20.071A7.334,7.334,0,0,1,126.148,72.5Z" transform="translate(-20.443 -8.035)" fill="#403f42"/>
    <path id="Path_1227" data-name="Path 1227" d="M62.531,114.915V100.94H7.558c-6.267,0-7.477-1.081-7.477-7.381Q0,50.025,0,6.532C0,1.108,1.264,0,6.661,0H165.51C172.382,0,174,1.529,174,8.469V92.186c0,6.987-1.883,8.775-8.836,8.775H111.129v13.961h28.207a31.543,31.543,0,0,1,4.241,0c3.045.421,6.117,1.169,5.838,5.166-.251,3.636-2.719,4.833-6.117,4.839-20.744,0-41.461.129-62.232.136-16.815,0-33.631-.136-50.433-.136-3.528,0-6.423-.89-6.532-4.86-.116-4.248,2.834-5.247,6.6-5.213C41.135,114.976,51.656,114.915,62.531,114.915ZM162.588,91.037l.9-.761V10.243H10.2V91.125H49.617Zm-61.5,10.2H72.319V114.69H101.1Z" fill="#403f42"/>
  </g>
</svg>
