<svg xmlns="http://www.w3.org/2000/svg" width="88.825" height="88.289" viewBox="0 0 88.825 88.289">
  <g id="Group_1198" data-name="Group 1198" transform="translate(-83.467 -1628.211)">
    <g id="Group_1159" data-name="Group 1159" transform="translate(87 1675.266)">
      <line id="Line_110" data-name="Line 110" x1="6.609" y2="6.148" transform="translate(0 0)" fill="none" stroke="#ae1d32" stroke-linecap="round" stroke-width="5"/>
      <line id="Line_112" data-name="Line 112" y1="32" transform="translate(0 6.482)" fill="none" stroke="#ae1d32" stroke-linecap="round" stroke-width="5"/>
      <line id="Line_117" data-name="Line 117" y1="32" transform="translate(13 6.482)" fill="none" stroke="#ae1d32" stroke-linecap="round" stroke-width="5"/>
      <path id="Path_3545" data-name="Path 3545" d="M12.811,0H0" transform="translate(0.154 38.734)" fill="#ae1d32" stroke="#ae1d32" stroke-linecap="round" stroke-width="5"/>
      <line id="Line_111" data-name="Line 111" x2="6.056" y2="5.888" transform="translate(6.916 0)" fill="none" stroke="#ae1d32" stroke-linecap="round" stroke-width="5"/>
    </g>
    <g id="Group_1196" data-name="Group 1196" transform="translate(132 1675.266)">
      <line id="Line_110-2" data-name="Line 110" x1="6.609" y2="6.148" transform="translate(0 0)" fill="none" stroke="#ae1d32" stroke-linecap="round" stroke-width="5"/>
      <line id="Line_112-2" data-name="Line 112" y1="32" transform="translate(0 6.482)" fill="none" stroke="#ae1d32" stroke-linecap="round" stroke-width="5"/>
      <line id="Line_117-2" data-name="Line 117" y1="32" transform="translate(13 6.482)" fill="none" stroke="#ae1d32" stroke-linecap="round" stroke-width="5"/>
      <path id="Path_3545-2" data-name="Path 3545" d="M12.811,0H0" transform="translate(0.154 38.734)" fill="#ae1d32" stroke="#ae1d32" stroke-linecap="round" stroke-width="5"/>
      <line id="Line_111-2" data-name="Line 111" x2="6.056" y2="5.888" transform="translate(6.916 0)" fill="none" stroke="#ae1d32" stroke-linecap="round" stroke-width="5"/>
    </g>
    <g id="Group_1194" data-name="Group 1194" transform="translate(109.631 1675.266)">
      <line id="Line_110-3" data-name="Line 110" x1="6.609" y2="6.148" transform="translate(0 0)" fill="none" stroke="#ae1d32" stroke-linecap="round" stroke-width="5"/>
      <line id="Line_112-3" data-name="Line 112" y1="32" transform="translate(0 6.482)" fill="none" stroke="#ae1d32" stroke-linecap="round" stroke-width="5"/>
      <line id="Line_117-3" data-name="Line 117" y1="32" transform="translate(13 6.482)" fill="none" stroke="#ae1d32" stroke-linecap="round" stroke-width="5"/>
      <path id="Path_3545-3" data-name="Path 3545" d="M12.811,0H0" transform="translate(0.154 38.734)" fill="#ae1d32" stroke="#ae1d32" stroke-linecap="round" stroke-width="5"/>
      <line id="Line_111-3" data-name="Line 111" x2="6.056" y2="5.888" transform="translate(6.916 0)" fill="none" stroke="#ae1d32" stroke-linecap="round" stroke-width="5"/>
    </g>
    <g id="Group_1195" data-name="Group 1195" transform="translate(154.898 1675.266)">
      <line id="Line_110-4" data-name="Line 110" x1="6.609" y2="6.148" transform="translate(0 0)" fill="none" stroke="#ae1d32" stroke-linecap="round" stroke-width="5"/>
      <line id="Line_112-4" data-name="Line 112" y1="32" transform="translate(0 6.482)" fill="none" stroke="#ae1d32" stroke-linecap="round" stroke-width="5"/>
      <line id="Line_117-4" data-name="Line 117" y1="32" transform="translate(13 6.482)" fill="none" stroke="#ae1d32" stroke-linecap="round" stroke-width="5"/>
      <path id="Path_3545-4" data-name="Path 3545" d="M12.811,0H0" transform="translate(0.154 38.734)" fill="#ae1d32" stroke="#ae1d32" stroke-linecap="round" stroke-width="5"/>
      <line id="Line_111-4" data-name="Line 111" x2="6.056" y2="5.888" transform="translate(6.916 0)" fill="none" stroke="#ae1d32" stroke-linecap="round" stroke-width="5"/>
    </g>
    <line id="Line_163" data-name="Line 163" y1="9.55" transform="translate(156.268 1670.5)" fill="none" stroke="#ae1d32" stroke-linecap="round" stroke-width="5"/>
    <line id="Line_164" data-name="Line 164" y1="21.375" transform="translate(90.57 1655.914)" fill="none" stroke="#ae1d32" stroke-linecap="round" stroke-width="5"/>
    <line id="Line_170" data-name="Line 170" y1="23.946" x2="23.914" transform="translate(90.635 1631.746)" fill="none" stroke="#ae1d32" stroke-linecap="round" stroke-width="5"/>
    <line id="Line_171" data-name="Line 171" x2="23.98" y2="23.946" transform="translate(114.91 1631.746)" fill="none" stroke="#ae1d32" stroke-linecap="round" stroke-width="5"/>
    <line id="Line_167" data-name="Line 167" y1="18.807" transform="translate(138.891 1656.273)" fill="none" stroke="#ae1d32" stroke-linecap="round" stroke-width="5"/>
    <g id="Rectangle_966" data-name="Rectangle 966" transform="translate(99.973 1688.605)" fill="#ae1d32" stroke="#ae1d32" stroke-width="4">
      <rect width="9.384" height="4.416" stroke="none"/>
      <rect x="2" y="2" width="5.384" height="0.416" fill="none"/>
    </g>
    <g id="Rectangle_970" data-name="Rectangle 970" transform="translate(123.158 1688.605)" fill="#ae1d32" stroke="#ae1d32" stroke-width="4">
      <rect width="9.384" height="4.416" stroke="none"/>
      <rect x="2" y="2" width="5.384" height="0.416" fill="none"/>
    </g>
    <g id="Rectangle_974" data-name="Rectangle 974" transform="translate(146.895 1688.605)" fill="#ae1d32" stroke="#ae1d32" stroke-width="4">
      <rect width="9.384" height="4.416" stroke="none"/>
      <rect x="2" y="2" width="5.384" height="0.416" fill="none"/>
    </g>
    <g id="Rectangle_967" data-name="Rectangle 967" transform="translate(99.973 1695.781)" fill="#ae1d32" stroke="#ae1d32" stroke-width="4">
      <rect width="9.384" height="4.416" stroke="none"/>
      <rect x="2" y="2" width="5.384" height="0.416" fill="none"/>
    </g>
    <g id="Rectangle_971" data-name="Rectangle 971" transform="translate(123.158 1695.781)" fill="#ae1d32" stroke="#ae1d32" stroke-width="4">
      <rect width="9.384" height="4.416" stroke="none"/>
      <rect x="2" y="2" width="5.384" height="0.416" fill="none"/>
    </g>
    <g id="Rectangle_975" data-name="Rectangle 975" transform="translate(146.895 1695.781)" fill="#ae1d32" stroke="#ae1d32" stroke-width="4">
      <rect width="9.384" height="4.416" stroke="none"/>
      <rect x="2" y="2" width="5.384" height="0.416" fill="none"/>
    </g>
    <g id="Path_3559" data-name="Path 3559" transform="translate(139.227 1635.565)" fill="none" stroke-linecap="round">
      <path d="M10.335,21.961H23.917l7.6,12.008a1.761,1.761,0,0,1-1.442,2.671H4.012A1.761,1.761,0,0,1,2.57,33.969Z" stroke="none"/>
      <path d="M 13.05595207214355 26.96094131469727 L 10.03072547912598 31.63922119140625 L 24.12298965454102 31.63922119140625 L 21.16365051269531 26.96094131469727 L 13.05595207214355 26.96094131469727 M 10.33488655090332 21.96094131469727 L 23.91718673706055 21.96094131469727 L 31.51293754577637 33.96871185302734 C 32.19459533691406 35.14073944091797 31.38526725769043 36.63922119140625 30.07058715820312 36.63922119140625 L 4.012367248535156 36.63922119140625 C 2.697696685791016 36.63922119140625 1.888359069824219 35.14073944091797 2.570016860961914 33.96871185302734 L 10.33488655090332 21.96094131469727 Z" stroke="none" fill="#ae1d32"/>
    </g>
    <g id="Polygon_7" data-name="Polygon 7" transform="translate(140.242 1636.655)" fill="none" stroke-linecap="round" stroke-linejoin="round">
      <path d="M13.474,4.116a3,3,0,0,1,5.1,0L29.212,21.284a3,3,0,0,1-2.55,4.58H5.388a3,3,0,0,1-2.55-4.58Z" stroke="none"/>
      <path d="M 16.02465057373047 9.493558883666992 L 8.979705810546875 20.86435508728027 L 23.06960678100586 20.86435508728027 L 16.02465057373047 9.493558883666992 M 16.0246524810791 2.696132659912109 C 17.00649833679199 2.696132659912109 17.98834228515625 3.169460296630859 18.57485961914062 4.116115570068359 L 29.21169853210449 21.28434562683105 C 30.44991874694824 23.28287506103516 29.01034736633301 25.86458206176758 26.6614875793457 25.86435508728027 L 5.387828826904297 25.86435508728027 C 3.036788940429688 25.86436653137207 1.599397659301758 23.28287506103516 2.837617874145508 21.28434562683105 L 13.47444725036621 4.116115570068359 C 14.06096267700195 3.169460296630859 15.04280853271484 2.696132659912109 16.0246524810791 2.696132659912109 Z" stroke="none" fill="#ae1d32"/>
    </g>
  </g>
</svg>
