<svg id="Layer_2" data-name="Layer 2" xmlns="http://www.w3.org/2000/svg" width="85" height="85" viewBox="0 0 85 85">
  <g id="MenuElevator" transform="translate(0)">
    <g id="图层_2" data-name="图层 2">
      <g id="图层_1-2" data-name="图层 1-2">
        <g id="elevator">
          <path id="Path_2930" data-name="Path 2930" d="M173.725,93.517h-5.668V89.264a3.888,3.888,0,0,0-3.652-3.938,3.778,3.778,0,0,0-3.895,3.652v4.539H154.2a2.52,2.52,0,0,0-2.324,3.493l9.742,23.113a2.517,2.517,0,0,0,4.648,0l9.758-23.116a2.52,2.52,0,0,0-1.345-3.3,2.484,2.484,0,0,0-.956-.193Z" transform="translate(-101.319 -56.994)" fill="#ae1d32"/>
          <path id="Path_2931" data-name="Path 2931" d="M58.513,89.673,48.774,66.56a2.52,2.52,0,0,0-4.648,0L34.387,89.673a2.523,2.523,0,0,0,2.3,3.5H42.36v4.25a3.881,3.881,0,0,0,3.652,3.935,3.779,3.779,0,0,0,3.9-3.652V93.169h6.309a2.513,2.513,0,0,0,2.3-3.5Z" transform="translate(-22.839 -43.427)" fill="#ae1d32"/>
          <path id="Path_2932" data-name="Path 2932" d="M76.815,0H8.185A8.185,8.185,0,0,0,0,8.185V76.815A8.185,8.185,0,0,0,8.185,85H76.815A8.185,8.185,0,0,0,85,76.815h0V8.185A8.185,8.185,0,0,0,76.815,0ZM7.557,76.815V8.185a.624.624,0,0,1,.628-.628h31.8V77.443H8.185a.624.624,0,0,1-.628-.628Zm69.886,0a.624.624,0,0,1-.628.628H46.906V7.557H76.815a.624.624,0,0,1,.628.628Z" transform="translate(0 0)" fill="#ae1d32"/>
        </g>
      </g>
    </g>
  </g>
</svg>
