<svg xmlns="http://www.w3.org/2000/svg" width="87.143" height="87.966" viewBox="0 0 87.143 87.966">
  <g id="Group_1177" data-name="Group 1177" transform="translate(-1314 -171)">
    <path id="Path_3547" data-name="Path 3547" d="M12.863,0H60.9L73.766,36.881H0Z" transform="translate(1394.455 256.466) rotate(180)" fill="none" stroke="#ae1d32" stroke-linecap="round" stroke-linejoin="round" stroke-width="5"/>
    <g id="Rectangle_982" data-name="Rectangle 982" transform="translate(1314 207.793)" fill="none" stroke="#ae1d32" stroke-linecap="round" stroke-linejoin="round" stroke-width="5">
      <rect width="87.143" height="13.556" rx="6.778" stroke="none"/>
      <rect x="2.5" y="2.5" width="82.143" height="8.556" rx="4.278" fill="none"/>
    </g>
    <g id="Rectangle_983" data-name="Rectangle 983" transform="translate(1359.526 193.79)" fill="none" stroke="#ae1d32" stroke-linecap="round" stroke-linejoin="round" stroke-width="5">
      <rect width="40.22" height="17.764" rx="8.882" stroke="none"/>
      <rect x="2.5" y="2.5" width="35.22" height="12.764" rx="6.382" fill="none"/>
    </g>
    <g id="Rectangle_984" data-name="Rectangle 984" transform="translate(1317.352 199.935)" fill="none" stroke="#ae1d32" stroke-linecap="round" stroke-linejoin="round" stroke-width="5">
      <rect width="42.175" height="11.619" rx="5.81" stroke="none"/>
      <rect x="2.5" y="2.5" width="37.175" height="6.619" rx="3.31" fill="none"/>
    </g>
    <g id="Rectangle_985" data-name="Rectangle 985" transform="translate(1327.406 181.054)" fill="none" stroke="#ae1d32" stroke-linecap="round" stroke-linejoin="round" stroke-width="5">
      <rect width="36.03" height="18.881" rx="9.44" stroke="none"/>
      <rect x="2.5" y="2.5" width="31.03" height="13.881" rx="6.94" fill="none"/>
    </g>
    <g id="Rectangle_986" data-name="Rectangle 986" transform="translate(1333.551 171)" fill="none" stroke="#ae1d32" stroke-linecap="round" stroke-linejoin="round" stroke-width="4">
      <rect width="24.299" height="10.054" rx="5.027" stroke="none"/>
      <rect x="2" y="2" width="20.299" height="6.054" rx="3.027" fill="none"/>
    </g>
    <line id="Line_173" data-name="Line 173" y1="15.37" transform="translate(1340.641 229.667)" fill="none" stroke="#ae1d32" stroke-linecap="round" stroke-width="5"/>
    <line id="Line_174" data-name="Line 174" y1="15.37" transform="translate(1348.838 229.667)" fill="none" stroke="#ae1d32" stroke-linecap="round" stroke-width="5"/>
    <line id="Line_175" data-name="Line 175" y1="15.37" transform="translate(1358.06 229.667)" fill="none" stroke="#ae1d32" stroke-linecap="round" stroke-width="5"/>
    <line id="Line_176" data-name="Line 176" y1="15.37" transform="translate(1366.257 229.667)" fill="none" stroke="#ae1d32" stroke-linecap="round" stroke-width="5"/>
    <line id="Line_177" data-name="Line 177" y1="15.37" transform="translate(1374.454 229.667)" fill="none" stroke="#ae1d32" stroke-linecap="round" stroke-width="5"/>
  </g>
</svg>
