<svg xmlns="http://www.w3.org/2000/svg" width="85.047" height="85.043" viewBox="0 0 85.047 85.043">
  <path id="Path_3557" data-name="Path 3557" d="M22.45,6.25a2.03,2.03,0,0,0-1.792,1.078l-2.043,3.865-4.3.744a2.026,2.026,0,0,0-1.109,3.409l3.045,3.132L15.631,22.8a2.022,2.022,0,0,0,2.893,2.107l3.926-1.929,3.922,1.929a2.024,2.024,0,0,0,2.9-2.107l-.619-4.324,3.045-3.132a2.026,2.026,0,0,0-1.109-3.409l-4.305-.744L24.242,7.328A2.03,2.03,0,0,0,22.45,6.25Zm26.322,0a2.03,2.03,0,0,0-1.792,1.078l-2.043,3.865-4.3.744a2.026,2.026,0,0,0-1.109,3.409l3.045,3.132L41.953,22.8a2.022,2.022,0,0,0,2.893,2.107l3.926-1.929,3.922,1.929a2.024,2.024,0,0,0,2.9-2.107l-.619-4.324,3.045-3.132a2.026,2.026,0,0,0-1.109-3.409L52.6,11.193,50.563,7.328A2.03,2.03,0,0,0,48.771,6.25Zm26.322,0A2.03,2.03,0,0,0,73.3,7.328l-2.043,3.865-4.3.744a2.026,2.026,0,0,0-1.109,3.409l3.045,3.132L68.274,22.8a2.022,2.022,0,0,0,2.893,2.107l3.926-1.929,3.922,1.929a2.024,2.024,0,0,0,2.9-2.107l-.619-4.324,3.045-3.132a2.026,2.026,0,0,0-1.109-3.409l-4.305-.744L76.885,7.328A2.03,2.03,0,0,0,75.093,6.25ZM22.446,12.613l.714,1.348a2.027,2.027,0,0,0,1.447,1.052l1.5.262-1.067,1.1a2.031,2.031,0,0,0-.554,1.7l.216,1.515-1.371-.676a2.019,2.019,0,0,0-1.784,0l-1.374.676.22-1.515a2.019,2.019,0,0,0-.554-1.7l-1.067-1.1,1.5-.262a2.027,2.027,0,0,0,1.447-1.052l.714-1.348Zm26.322,0,.714,1.348a2.027,2.027,0,0,0,1.447,1.052l1.5.262-1.067,1.1a2.031,2.031,0,0,0-.554,1.7l.216,1.515-1.371-.676a2.019,2.019,0,0,0-1.784,0l-1.374.676.22-1.515a2.019,2.019,0,0,0-.554-1.7l-1.067-1.1,1.5-.262a2.027,2.027,0,0,0,1.447-1.052l.714-1.348Zm26.322,0,.714,1.348a2.027,2.027,0,0,0,1.447,1.052l1.5.262-1.067,1.1a2.031,2.031,0,0,0-.554,1.7l.216,1.515-1.371-.676a2.019,2.019,0,0,0-1.784,0l-1.374.676.22-1.515a2.019,2.019,0,0,0-.554-1.7l-1.067-1.1,1.5-.262a2.027,2.027,0,0,0,1.446-1.052l.714-1.348ZM20.419,30.548a8.1,8.1,0,0,0-8.1,8.1V56.869a6.073,6.073,0,0,0-6.075,6.075v24.3A4.057,4.057,0,0,0,10.3,91.293h8.1a4.057,4.057,0,0,0,4.051-4.051V83.191H75.093v4.051a4.057,4.057,0,0,0,4.051,4.051h8.1a4.057,4.057,0,0,0,4.051-4.051v-24.3a6.073,6.073,0,0,0-6.075-6.075V38.646a8.1,8.1,0,0,0-8.1-8.1Zm0,4.051H77.113a4.057,4.057,0,0,1,4.051,4.051V56.873H75.089V50.8a6.073,6.073,0,0,0-6.075-6.075H56.866A6.073,6.073,0,0,0,50.791,50.8v6.075H46.74V50.8a6.073,6.073,0,0,0-6.075-6.075H28.517A6.073,6.073,0,0,0,22.442,50.8v6.075H16.368V38.65A4.057,4.057,0,0,1,20.419,34.6Zm8.1,14.173H40.666a2.025,2.025,0,0,1,2.024,2.024v6.075h-16.2V50.795a2.025,2.025,0,0,1,2.024-2.024Zm28.349,0H69.015a2.025,2.025,0,0,1,2.024,2.024v6.075h-16.2V50.795a2.025,2.025,0,0,1,2.024-2.024ZM12.321,60.92H85.215a2.025,2.025,0,0,1,2.024,2.024v24.3h-8.1V83.191a4.05,4.05,0,0,0-4.051-4.051H22.442a4.05,4.05,0,0,0-4.051,4.051v4.051h-8.1v-24.3a2.025,2.025,0,0,1,2.024-2.024Z" transform="translate(-6.246 -6.25)" fill="#ae1d32" fill-rule="evenodd"/>
</svg>
