<svg xmlns="http://www.w3.org/2000/svg" width="85" height="85.336" viewBox="0 0 85 85.336">
  <g id="Group_1240" data-name="Group 1240" transform="translate(-314 -173.41)">
    <path id="Path_2946" data-name="Path 2946" d="M76.094,6.25a2.037,2.037,0,0,0-1.8,1.082l-2.05,3.878-4.316.747a2.033,2.033,0,0,0-1.112,3.421l3.055,3.143-.621,4.339a2.029,2.029,0,0,0,2.9,2.114l3.939-1.935,3.935,1.935a2.03,2.03,0,0,0,2.907-2.114l-.621-4.339,3.055-3.143a2.033,2.033,0,0,0-1.112-3.421l-4.32-.747L77.892,7.332a2.037,2.037,0,0,0-1.8-1.082Zm0,6.385.716,1.352a2.034,2.034,0,0,0,1.451,1.055l1.509.263-1.071,1.1a2.038,2.038,0,0,0-.556,1.7l.217,1.52-1.375-.678a2.026,2.026,0,0,0-1.79,0l-1.379.678.221-1.52a2.026,2.026,0,0,0-.556-1.7l-1.071-1.1,1.509-.263a2.034,2.034,0,0,0,1.451-1.055l.716-1.352Z" transform="translate(251.906 233.564)" fill="#fff" fill-rule="evenodd"/>
    <path id="Path_2948" data-name="Path 2948" d="M76.094,6.25a2.037,2.037,0,0,0-1.8,1.082l-2.05,3.878-4.316.747a2.033,2.033,0,0,0-1.112,3.421l3.055,3.143-.621,4.339a2.029,2.029,0,0,0,2.9,2.114l3.939-1.935,3.935,1.935a2.03,2.03,0,0,0,2.907-2.114l-.621-4.339,3.055-3.143a2.033,2.033,0,0,0-1.112-3.421l-4.32-.747L77.892,7.332a2.037,2.037,0,0,0-1.8-1.082Zm0,6.385.716,1.352a2.034,2.034,0,0,0,1.451,1.055l1.509.263-1.071,1.1a2.038,2.038,0,0,0-.556,1.7l.217,1.52-1.375-.678a2.026,2.026,0,0,0-1.79,0l-1.379.678.221-1.52a2.026,2.026,0,0,0-.556-1.7l-1.071-1.1,1.509-.263a2.034,2.034,0,0,0,1.451-1.055l.716-1.352Z" transform="translate(308.906 233.564)" fill="#fff" fill-rule="evenodd"/>
    <path id="Path_2947" data-name="Path 2947" d="M76.094,6.25a2.037,2.037,0,0,0-1.8,1.082l-2.05,3.878-4.316.747a2.033,2.033,0,0,0-1.112,3.421l3.055,3.143-.621,4.339a2.029,2.029,0,0,0,2.9,2.114l3.939-1.935,3.935,1.935a2.03,2.03,0,0,0,2.907-2.114l-.621-4.339,3.055-3.143a2.033,2.033,0,0,0-1.112-3.421l-4.32-.747L77.892,7.332a2.037,2.037,0,0,0-1.8-1.082Zm0,6.385.716,1.352a2.034,2.034,0,0,0,1.451,1.055l1.509.263-1.071,1.1a2.038,2.038,0,0,0-.556,1.7l.217,1.52-1.375-.678a2.026,2.026,0,0,0-1.79,0l-1.379.678.221-1.52a2.026,2.026,0,0,0-.556-1.7l-1.071-1.1,1.509-.263a2.034,2.034,0,0,0,1.451-1.055l.716-1.352Z" transform="translate(280.574 210.209)" fill="#fff" fill-rule="evenodd"/>
    <g id="Rectangle_958" data-name="Rectangle 958" transform="translate(314 193)" fill="none" stroke="#fff" stroke-linecap="round" stroke-linejoin="round" stroke-width="5">
      <rect width="85" height="14.41" rx="7.205" stroke="none"/>
      <rect x="2.5" y="2.5" width="80" height="9.41" rx="4.705" fill="none"/>
    </g>
    <g id="Ellipse_88" data-name="Ellipse 88" transform="translate(348 173.41)" fill="none" stroke="#fff" stroke-width="5">
      <circle cx="8.5" cy="8.5" r="8.5" stroke="none"/>
      <circle cx="8.5" cy="8.5" r="6" fill="none"/>
    </g>
    <g id="Ellipse_89" data-name="Ellipse 89" transform="translate(319.5 217.41)" fill="none" stroke="#fff" stroke-width="5">
      <circle cx="8.5" cy="8.5" r="8.5" stroke="none"/>
      <circle cx="8.5" cy="8.5" r="6" fill="none"/>
    </g>
    <g id="Ellipse_90" data-name="Ellipse 90" transform="translate(376.5 217.41)" fill="none" stroke="#fff" stroke-width="5">
      <circle cx="8.5" cy="8.5" r="8.5" stroke="none"/>
      <circle cx="8.5" cy="8.5" r="6" fill="none"/>
    </g>
    <line id="Line_104" data-name="Line 104" y2="9.299" transform="translate(356.668 187.359)" fill="none" stroke="#fff" stroke-width="5"/>
    <line id="Line_105" data-name="Line 105" y2="15.317" transform="translate(328 203.223)" fill="none" stroke="#fff" stroke-width="5"/>
    <line id="Line_108" data-name="Line 108" y2="15.317" transform="translate(385 203.223)" fill="none" stroke="#fff" stroke-width="5"/>
    <line id="Line_107" data-name="Line 107" y2="17.277" transform="translate(356.668 203.223)" fill="none" stroke="#fff" stroke-width="5"/>
    <line id="Line_106" data-name="Line 106" y2="12.09" transform="translate(328 232.41)" fill="none" stroke="#fff" stroke-width="5"/>
    <line id="Line_109" data-name="Line 109" y2="12.09" transform="translate(385 232.41)" fill="none" stroke="#fff" stroke-width="5"/>
  </g>
</svg>
